<svg id="svg" version="1.1" xmlns="http://www.w3.org/2000/svg" xmlns:xlink="http://www.w3.org/1999/xlink" width="400" height="215.07996953541507" viewBox="0, 0, 400,215.07996953541507">
    <g id="svgg">
        <path id="path0"
              d="M37.601 36.589 C 20.234 53.977,6.025 68.302,6.025 68.423 C 6.025 68.543,9.033 71.645,12.709 75.317 L 19.394 81.992 12.709 88.677 C 9.033 92.354,6.025 95.516,6.025 95.704 C 6.025 95.892,20.089 110.124,37.278 127.331 C 54.467 144.539,68.659 158.754,68.816 158.921 C 69.342 159.484,69.627 159.242,76.296 152.560 C 79.954 148.893,83.011 145.892,83.088 145.889 C 83.165 145.887,86.229 148.886,89.896 152.555 C 95.790 158.451,97.257 159.742,97.257 159.036 C 97.257 158.932,111.393 144.706,128.671 127.422 C 145.949 110.139,160.086 95.862,160.086 95.695 C 160.086 95.529,157.094 92.397,153.436 88.736 L 146.786 82.078 153.436 75.431 C 157.094 71.776,160.086 68.620,160.086 68.419 C 160.086 67.982,97.141 4.949,96.704 4.949 C 96.537 4.949,93.444 7.902,89.831 11.512 C 86.219 15.121,83.157 18.074,83.027 18.074 C 82.897 18.074,79.847 15.121,76.248 11.512 C 72.649 7.902,69.586 4.954,69.441 4.961 C 69.296 4.968,54.968 19.200,37.601 36.589 M110.639 54.110 L 119.606 63.068 110.260 72.412 C 105.120 77.552,100.914 81.850,100.914 81.964 C 100.914 82.078,105.093 86.348,110.201 91.454 L 119.488 100.737 110.334 109.891 L 101.180 119.045 92.118 109.985 C 87.134 105.001,83.055 100.825,83.055 100.704 C 83.055 100.583,82.765 100.484,82.410 100.484 C 82.055 100.484,81.764 100.583,81.764 100.704 C 81.764 100.825,77.691 104.996,72.713 109.974 L 63.662 119.023 62.654 118.091 C 62.100 117.579,57.974 113.463,53.487 108.944 L 45.328 100.728 54.616 91.441 C 59.725 86.334,63.905 82.065,63.905 81.955 C 63.905 81.845,59.700 77.552,54.560 72.415 L 45.215 63.075 54.271 54.023 C 59.252 49.044,63.415 44.970,63.523 44.970 C 63.630 44.970,67.826 49.086,72.849 54.115 C 78.326 59.601,82.140 63.260,82.379 63.260 C 82.619 63.260,86.474 59.564,92.008 54.029 C 97.599 48.436,101.323 44.867,101.455 44.975 C 101.574 45.073,105.707 49.184,110.639 54.110 M170.342 75.883 C 169.997 76.229,170.185 86.662,170.539 86.798 C 171.234 87.064,187.957 86.944,188.230 86.670 C 188.417 86.483,188.488 84.939,188.488 81.076 L 188.488 75.740 179.487 75.740 C 174.536 75.740,170.421 75.804,170.342 75.883 M72.942 170.119 C 72.410 170.169,71.781 170.292,71.544 170.393 C 71.307 170.494,70.497 170.691,69.744 170.832 C 68.991 170.972,68.216 171.174,68.023 171.280 C 67.391 171.627,65.266 172.566,65.113 172.566 C 64.970 172.566,64.688 172.774,64.021 173.373 C 63.856 173.521,63.632 173.642,63.522 173.642 C 63.247 173.642,60.730 175.578,59.817 176.493 C 58.399 177.914,56.590 180.244,56.590 180.651 C 56.590 180.794,56.444 180.967,56.267 181.035 C 56.089 181.103,55.944 181.307,55.944 181.489 C 55.944 181.670,55.847 181.818,55.729 181.818 C 55.611 181.818,55.514 181.943,55.514 182.095 C 55.514 182.248,55.326 182.742,55.096 183.192 C 54.866 183.643,54.616 184.293,54.541 184.636 C 54.465 184.980,54.333 185.261,54.247 185.261 C 53.429 185.261,52.725 194.009,53.329 196.665 C 53.828 198.857,54.038 199.603,54.338 200.248 C 54.511 200.621,54.653 201.081,54.653 201.270 C 54.653 201.459,54.735 201.614,54.834 201.614 C 54.934 201.614,55.131 202.001,55.273 202.474 C 55.415 202.948,55.624 203.335,55.738 203.335 C 55.851 203.335,55.946 203.456,55.948 203.604 C 55.952 203.839,56.204 204.263,57.503 206.216 C 57.651 206.440,58.063 206.933,58.419 207.310 C 58.774 207.688,59.314 208.280,59.619 208.625 C 60.315 209.411,61.213 210.203,62.178 210.880 C 62.589 211.168,63.035 211.504,63.169 211.627 C 63.303 211.749,63.887 212.088,64.466 212.380 C 65.045 212.671,65.568 212.975,65.629 213.054 C 65.689 213.134,66.004 213.265,66.328 213.347 C 66.652 213.428,66.918 213.571,66.918 213.665 C 66.918 213.759,67.426 213.956,68.047 214.103 C 68.669 214.251,69.225 214.438,69.285 214.519 C 69.894 215.356,80.969 215.362,82.087 214.525 C 82.205 214.437,82.811 214.237,83.432 214.081 C 84.053 213.925,84.562 213.729,84.562 213.646 C 84.562 213.563,84.800 213.435,85.092 213.362 C 85.569 213.242,88.007 211.904,88.542 211.468 C 88.661 211.371,89.287 210.882,89.934 210.380 C 91.453 209.202,93.598 206.887,93.598 206.424 C 93.599 206.289,93.744 206.123,93.921 206.055 C 94.099 205.986,94.244 205.782,94.244 205.601 C 94.244 205.420,94.329 205.272,94.433 205.272 C 94.537 205.272,94.750 204.957,94.905 204.572 C 95.061 204.188,95.255 203.825,95.338 203.765 C 95.557 203.608,95.944 202.094,95.801 201.951 C 95.734 201.884,93.572 201.829,90.996 201.829 L 86.314 201.829 84.920 203.174 C 83.296 204.740,83.098 204.905,82.396 205.275 C 82.108 205.427,81.824 205.609,81.764 205.680 C 80.421 207.293,72.019 207.818,70.791 206.367 C 70.732 206.297,70.102 205.949,69.392 205.594 C 68.682 205.239,68.024 204.828,67.929 204.680 C 67.834 204.532,67.669 204.411,67.562 204.411 C 67.454 204.411,66.805 203.831,66.120 203.122 C 64.503 201.450,64.381 201.302,64.085 200.654 C 63.948 200.353,63.765 200.108,63.679 200.108 C 63.592 200.108,63.455 199.842,63.374 199.518 C 63.292 199.194,63.161 198.879,63.081 198.819 C 62.107 198.078,61.362 190.428,62.115 188.897 C 62.255 188.613,62.487 187.994,62.630 187.520 C 62.774 187.047,62.955 186.611,63.033 186.552 C 63.111 186.493,63.439 185.931,63.762 185.305 C 64.086 184.678,64.582 183.903,64.866 183.583 C 66.063 182.232,66.487 181.701,66.487 181.549 C 66.487 181.460,66.622 181.388,66.788 181.388 C 66.953 181.388,67.316 181.147,67.594 180.854 C 67.873 180.560,68.214 180.318,68.352 180.316 C 68.490 180.314,68.635 180.239,68.675 180.151 C 68.767 179.944,70.717 179.021,71.065 179.020 C 71.210 179.019,71.619 178.856,71.974 178.657 C 72.762 178.216,78.442 178.092,78.706 178.510 C 78.791 178.644,79.271 178.822,79.774 178.906 C 80.277 178.990,80.689 179.132,80.689 179.222 C 80.689 179.312,81.052 179.543,81.495 179.734 C 82.316 180.088,82.950 180.462,83.387 180.850 C 83.521 180.968,83.900 181.259,84.231 181.495 C 84.990 182.040,86.498 183.571,86.498 183.798 C 86.498 183.893,88.677 183.970,91.339 183.970 L 96.181 183.970 96.181 183.324 C 96.181 182.969,96.084 182.679,95.966 182.679 C 95.847 182.679,95.750 182.541,95.750 182.371 C 95.750 182.202,95.629 181.936,95.481 181.780 C 95.334 181.623,95.044 181.157,94.837 180.742 C 94.059 179.179,91.623 176.368,89.897 175.040 C 88.608 174.048,87.999 173.642,87.803 173.642 C 87.677 173.642,87.574 173.565,87.574 173.472 C 87.574 173.276,85.397 172.136,85.024 172.136 C 84.888 172.136,84.777 172.047,84.777 171.939 C 84.777 171.831,84.389 171.678,83.916 171.598 C 83.443 171.518,83.055 171.379,83.055 171.290 C 83.055 171.202,82.353 171.008,81.495 170.861 C 80.637 170.714,79.770 170.507,79.568 170.400 C 79.154 170.182,74.424 169.982,72.942 170.119 M306.832 170.132 C 306.299 170.175,305.670 170.296,305.433 170.401 C 305.196 170.507,304.373 170.707,303.604 170.847 C 302.835 170.986,302.109 171.176,301.990 171.269 C 301.872 171.362,301.533 171.505,301.237 171.587 C 300.392 171.822,297.579 173.265,297.579 173.463 C 297.579 173.561,297.441 173.642,297.272 173.642 C 297.103 173.642,296.837 173.763,296.680 173.911 C 296.524 174.059,295.961 174.470,295.430 174.825 C 294.257 175.610,291.506 178.377,290.725 179.559 C 290.413 180.032,290.036 180.548,289.887 180.704 C 289.739 180.860,289.618 181.127,289.618 181.296 C 289.618 181.465,289.528 181.603,289.417 181.603 C 289.306 181.603,289.093 181.942,288.943 182.356 C 288.793 182.770,288.598 183.109,288.509 183.109 C 288.420 183.109,288.283 183.448,288.205 183.862 C 288.128 184.276,287.986 184.615,287.890 184.615 C 287.794 184.615,287.648 184.930,287.566 185.315 C 287.484 185.699,287.345 186.111,287.258 186.229 C 287.006 186.572,286.606 188.896,286.606 190.018 C 286.606 190.583,286.520 191.098,286.414 191.163 C 286.309 191.228,286.223 191.913,286.223 192.684 C 286.223 193.456,286.309 194.140,286.414 194.205 C 286.520 194.270,286.606 194.784,286.606 195.347 C 286.606 196.513,286.993 198.818,287.243 199.139 C 287.335 199.258,287.476 199.718,287.556 200.161 C 287.636 200.605,287.783 200.968,287.883 200.968 C 287.982 200.968,288.128 201.307,288.205 201.721 C 288.283 202.136,288.421 202.474,288.512 202.474 C 288.603 202.474,288.810 202.813,288.973 203.228 C 289.135 203.642,289.347 203.981,289.443 203.981 C 289.539 203.981,289.618 204.073,289.618 204.185 C 289.618 204.539,290.942 206.426,291.694 207.143 C 292.091 207.522,292.415 207.880,292.415 207.939 C 292.415 208.106,293.415 209.145,293.576 209.145 C 293.655 209.145,294.017 209.484,294.381 209.898 C 294.744 210.312,295.169 210.651,295.324 210.651 C 295.480 210.651,295.639 210.724,295.679 210.812 C 295.783 211.048,297.096 211.942,297.338 211.942 C 297.451 211.942,297.576 212.023,297.615 212.123 C 297.710 212.363,299.897 213.448,300.287 213.448 C 300.454 213.448,300.592 213.538,300.592 213.648 C 300.592 213.758,301.124 213.967,301.775 214.112 C 302.426 214.258,302.959 214.444,302.959 214.526 C 302.959 214.830,306.623 215.170,309.910 215.170 C 313.165 215.169,316.299 214.851,316.299 214.520 C 316.299 214.434,316.710 214.298,317.212 214.218 C 318.165 214.065,321.733 212.464,321.858 212.132 C 321.897 212.028,322.063 211.942,322.227 211.942 C 322.390 211.942,322.821 211.651,323.185 211.296 C 323.548 210.941,323.929 210.651,324.033 210.651 C 324.554 210.651,328.422 206.702,328.672 205.915 C 328.740 205.701,328.937 205.472,329.110 205.406 C 329.283 205.339,329.424 205.137,329.424 204.956 C 329.424 204.774,329.503 204.626,329.599 204.626 C 329.696 204.626,329.907 204.287,330.070 203.873 C 330.232 203.459,330.436 203.120,330.523 203.120 C 330.610 203.120,330.745 202.829,330.823 202.474 C 330.901 202.119,331.046 201.829,331.146 201.829 C 331.245 201.829,331.392 201.532,331.472 201.169 C 331.551 200.806,331.747 200.258,331.906 199.952 C 332.065 199.646,332.260 198.781,332.341 198.030 C 332.421 197.279,332.572 196.665,332.677 196.665 C 332.782 196.665,332.867 195.599,332.867 194.296 L 332.867 191.928 318.612 191.983 L 304.357 192.039 304.299 196.073 L 304.240 200.108 313.060 200.108 L 321.879 200.108 321.407 200.914 C 320.938 201.716,319.978 202.887,319.259 203.535 C 319.052 203.721,318.627 204.136,318.315 204.458 C 318.002 204.779,317.421 205.150,317.023 205.281 C 316.625 205.413,316.299 205.610,316.299 205.719 C 316.299 205.828,316.127 205.917,315.917 205.917 C 315.706 205.917,315.326 206.063,315.072 206.241 C 313.990 206.999,309.548 207.602,307.841 207.223 C 307.345 207.113,306.334 206.906,305.594 206.763 C 304.855 206.621,304.250 206.420,304.250 206.318 C 304.250 206.216,304.147 206.132,304.021 206.132 C 303.616 206.132,301.452 205.032,301.452 204.826 C 301.452 204.716,301.324 204.626,301.168 204.626 C 301.011 204.626,300.357 204.083,299.715 203.419 C 299.073 202.754,298.378 202.055,298.171 201.865 C 297.964 201.674,297.795 201.405,297.795 201.266 C 297.795 201.128,297.658 200.962,297.492 200.898 C 297.326 200.834,297.124 200.485,297.045 200.122 C 296.965 199.759,296.818 199.462,296.719 199.462 C 296.619 199.462,296.474 199.172,296.396 198.817 C 296.318 198.462,296.178 198.171,296.085 198.171 C 295.993 198.171,295.800 197.566,295.657 196.826 C 295.514 196.087,295.307 195.313,295.197 195.108 C 294.947 194.640,294.933 190.799,295.180 190.522 C 295.280 190.409,295.482 189.621,295.627 188.770 C 295.773 187.918,295.958 187.192,296.037 187.156 C 296.116 187.120,296.423 186.606,296.719 186.014 C 297.015 185.422,297.315 184.890,297.386 184.831 C 297.457 184.771,297.639 184.487,297.791 184.199 C 298.099 183.616,298.208 183.476,299.329 182.246 C 299.759 181.774,300.181 181.388,300.267 181.388 C 300.352 181.388,300.726 181.144,301.099 180.847 C 301.471 180.549,301.879 180.223,302.005 180.122 C 302.131 180.021,302.591 179.809,303.027 179.651 C 303.463 179.494,303.819 179.298,303.819 179.217 C 303.819 179.135,304.182 179.001,304.626 178.918 C 305.070 178.835,305.569 178.655,305.735 178.518 C 306.140 178.183,312.241 178.174,312.662 178.507 C 312.828 178.639,313.254 178.815,313.609 178.900 C 314.490 179.109,316.299 179.949,316.299 180.149 C 316.299 180.239,316.425 180.312,316.578 180.312 C 317.099 180.312,319.361 182.340,320.256 183.608 L 320.663 184.185 325.689 184.185 L 330.715 184.185 330.715 183.647 C 330.715 183.351,330.619 183.109,330.500 183.109 C 330.382 183.109,330.285 182.990,330.285 182.843 C 330.285 182.446,329.167 180.312,328.959 180.312 C 328.860 180.312,328.779 180.206,328.779 180.077 C 328.779 179.337,324.416 174.930,323.242 174.484 C 322.974 174.381,322.754 174.199,322.754 174.077 C 322.754 173.956,322.606 173.857,322.425 173.857 C 322.243 173.857,322.042 173.718,321.976 173.547 C 321.911 173.377,321.575 173.176,321.230 173.100 C 320.885 173.024,320.602 172.892,320.602 172.807 C 320.602 172.722,320.239 172.522,319.796 172.364 C 319.352 172.205,318.940 172.016,318.881 171.944 C 318.693 171.715,316.015 170.862,315.008 170.710 C 314.476 170.630,313.986 170.482,313.919 170.381 C 313.792 170.188,308.476 170.001,306.832 170.132 M383.983 170.868 C 383.281 170.971,382.608 171.152,382.488 171.272 C 382.368 171.392,382.103 171.490,381.898 171.490 C 381.694 171.490,381.396 171.611,381.236 171.759 C 381.077 171.907,380.477 172.265,379.904 172.556 C 378.800 173.115,376.762 175.006,376.762 175.471 C 376.762 175.623,376.616 175.803,376.439 175.871 C 376.261 175.939,376.116 176.143,376.116 176.325 C 376.116 176.506,376.023 176.654,375.910 176.654 C 375.796 176.654,375.587 177.041,375.445 177.515 C 375.303 177.988,375.113 178.375,375.022 178.375 C 374.931 178.375,374.789 178.909,374.708 179.562 C 374.626 180.214,374.474 180.801,374.370 180.865 C 374.106 181.028,374.130 184.774,374.395 184.938 C 374.513 185.011,374.610 185.354,374.610 185.700 C 374.610 186.406,375.666 189.134,375.939 189.134 C 376.037 189.134,376.116 189.282,376.116 189.463 C 376.116 189.645,376.261 189.849,376.439 189.917 C 376.616 189.985,376.762 190.142,376.762 190.266 C 376.762 190.537,378.418 192.146,378.697 192.146 C 378.804 192.146,378.969 192.267,379.064 192.415 C 379.334 192.836,379.930 193.177,381.851 194.005 C 382.224 194.166,382.596 194.298,382.679 194.298 C 382.761 194.298,383.134 194.435,383.507 194.602 C 384.933 195.240,387.070 196.019,387.395 196.019 C 387.582 196.019,387.735 196.108,387.735 196.217 C 387.735 196.326,388.026 196.479,388.381 196.557 C 388.736 196.635,389.026 196.782,389.026 196.883 C 389.026 196.984,389.244 197.134,389.510 197.217 C 391.524 197.843,392.710 202.600,391.202 204.005 C 390.952 204.237,390.748 204.557,390.748 204.716 C 390.748 204.875,390.457 205.125,390.102 205.272 C 389.747 205.419,389.457 205.616,389.457 205.709 C 389.457 205.803,389.070 205.945,388.597 206.025 C 388.124 206.104,387.683 206.258,387.616 206.366 C 387.451 206.634,385.799 206.617,385.799 206.347 C 385.799 206.229,385.516 206.132,385.170 206.132 C 384.585 206.132,383.349 205.334,382.943 204.694 C 382.852 204.550,382.628 204.283,382.446 204.101 C 382.264 203.919,382.059 203.430,381.992 203.015 C 381.925 202.599,381.785 202.259,381.682 202.259 C 381.580 202.259,381.495 201.967,381.495 201.609 L 381.495 200.959 377.138 201.018 L 372.781 201.076 372.821 201.721 C 372.893 202.869,373.317 205.117,373.508 205.359 C 373.610 205.489,373.817 205.979,373.969 206.449 C 374.121 206.919,374.351 207.424,374.481 207.571 C 375.083 208.252,375.256 208.494,375.256 208.657 C 375.256 208.843,376.338 209.967,377.663 211.156 C 378.099 211.548,378.922 212.102,379.492 212.389 C 380.061 212.676,380.576 212.971,380.635 213.045 C 380.694 213.118,381.081 213.251,381.495 213.338 C 381.910 213.426,382.347 213.577,382.468 213.674 C 383.318 214.353,390.159 214.338,390.842 213.655 C 390.956 213.541,391.205 213.448,391.397 213.448 C 391.905 213.448,395.115 211.774,395.324 211.400 C 395.423 211.225,395.593 211.081,395.703 211.081 C 395.981 211.081,397.418 209.662,397.418 209.389 C 397.418 209.266,397.554 209.089,397.720 208.994 C 398.068 208.796,399.139 206.855,399.139 206.423 C 399.139 206.263,399.223 206.132,399.325 206.132 C 399.689 206.132,400.000 203.646,400.000 200.734 C 400.000 197.946,399.695 195.589,399.335 195.589 C 399.246 195.589,399.108 195.292,399.029 194.929 C 398.949 194.566,398.747 194.217,398.581 194.153 C 398.415 194.089,398.279 193.901,398.279 193.735 C 398.279 193.569,398.085 193.267,397.848 193.065 C 397.612 192.862,397.418 192.621,397.418 192.529 C 397.418 192.154,394.453 189.779,393.984 189.779 C 393.861 189.779,393.760 189.684,393.760 189.568 C 393.760 189.452,393.494 189.293,393.168 189.214 C 392.843 189.134,392.386 188.939,392.152 188.779 C 391.919 188.619,391.580 188.485,391.399 188.481 C 391.218 188.477,390.683 188.287,390.210 188.058 C 389.736 187.829,389.185 187.639,388.985 187.635 C 388.785 187.631,388.572 187.547,388.511 187.449 C 388.450 187.351,387.864 187.150,387.207 187.003 C 386.551 186.856,386.014 186.646,386.014 186.536 C 386.014 186.427,385.862 186.337,385.677 186.337 C 385.335 186.337,384.128 185.506,383.331 184.723 C 382.726 184.128,382.682 180.816,383.271 180.227 C 383.478 180.020,383.647 179.775,383.647 179.682 C 383.647 179.589,384.140 179.257,384.743 178.944 C 385.814 178.388,387.735 178.144,387.735 178.564 C 387.735 178.667,388.016 178.808,388.359 178.877 C 389.156 179.036,390.031 179.844,390.219 180.594 C 390.299 180.914,390.451 181.230,390.556 181.295 C 390.662 181.360,390.748 181.736,390.748 182.131 C 390.748 183.095,390.813 183.109,395.284 183.109 L 399.139 183.109 399.134 181.980 C 399.126 180.254,398.303 177.300,397.830 177.300 C 397.747 177.300,397.613 177.034,397.532 176.710 C 397.371 176.068,397.309 175.987,395.769 174.392 C 394.674 173.257,393.161 172.136,392.726 172.136 C 392.585 172.136,392.469 172.039,392.469 171.920 C 392.469 171.802,392.300 171.705,392.093 171.704 C 391.885 171.703,391.433 171.555,391.088 171.375 C 389.822 170.715,386.607 170.486,383.983 170.868 M0.000 174.933 L 0.000 179.021 3.872 179.021 L 7.744 179.021 7.799 196.826 L 7.854 214.632 11.899 214.690 C 15.204 214.738,16.001 214.692,16.256 214.437 C 16.524 214.169,16.568 211.623,16.568 196.573 L 16.568 179.021 20.549 179.021 L 24.529 179.021 24.529 174.933 L 24.529 170.845 12.265 170.845 L 0.000 170.845 0.000 174.933 M27.242 171.185 C 27.045 171.699,27.092 214.160,27.290 214.472 C 27.425 214.685,29.947 214.731,39.175 214.687 L 50.888 214.632 50.946 210.597 L 51.005 206.563 43.361 206.563 L 35.718 206.563 35.718 201.832 L 35.718 197.101 42.980 197.044 L 50.242 196.988 50.301 193.143 C 50.342 190.489,50.283 189.206,50.113 189.001 C 49.913 188.759,48.547 188.704,42.792 188.704 L 35.718 188.704 35.718 183.865 L 35.718 179.026 43.303 178.970 L 50.888 178.913 50.946 174.879 L 51.005 170.845 39.189 170.845 C 28.612 170.845,27.359 170.880,27.242 171.185 M98.893 171.185 C 98.580 172.002,98.752 214.114,99.070 214.432 C 99.388 214.750,106.476 214.903,107.244 214.609 C 107.547 214.492,107.585 213.485,107.585 205.464 L 107.585 196.450 114.900 196.450 L 122.216 196.450 122.220 205.325 C 122.221 210.207,122.301 214.324,122.397 214.475 C 122.530 214.684,123.529 214.735,126.643 214.690 L 130.715 214.632 130.770 192.733 L 130.825 170.835 126.574 170.894 L 122.324 170.952 122.268 179.720 L 122.211 188.488 114.898 188.488 L 107.585 188.488 107.585 179.666 L 107.585 170.845 103.304 170.845 C 99.600 170.845,99.006 170.890,98.893 171.185 M133.764 170.988 C 133.584 171.167,133.572 213.932,133.751 214.399 C 133.920 214.840,141.749 214.916,142.184 214.481 C 142.380 214.285,142.442 210.643,142.442 199.404 C 142.442 187.535,142.496 184.643,142.711 184.879 C 142.975 185.167,143.233 185.618,144.317 187.682 C 144.613 188.244,144.930 188.704,145.023 188.704 C 145.117 188.704,145.258 188.964,145.338 189.282 C 145.418 189.600,145.670 190.124,145.899 190.445 C 146.128 190.766,146.315 191.135,146.315 191.265 C 146.315 191.395,146.401 191.501,146.505 191.501 C 146.610 191.501,146.758 191.670,146.835 191.877 C 146.912 192.084,147.259 192.738,147.606 193.330 C 147.954 193.921,148.301 194.575,148.377 194.782 C 148.454 194.989,148.595 195.159,148.690 195.159 C 148.785 195.159,148.928 195.456,149.008 195.819 C 149.088 196.182,149.283 196.529,149.442 196.590 C 149.601 196.651,149.794 196.983,149.869 197.328 C 149.945 197.674,150.096 197.956,150.205 197.956 C 150.314 197.956,150.403 198.096,150.403 198.268 C 150.403 198.440,150.535 198.657,150.696 198.752 C 150.857 198.847,151.104 199.280,151.245 199.714 C 151.386 200.148,151.642 200.620,151.813 200.762 C 151.985 200.905,152.125 201.154,152.125 201.317 C 152.125 201.480,152.211 201.614,152.317 201.614 C 152.422 201.614,152.568 201.849,152.640 202.137 C 152.712 202.424,152.892 202.789,153.040 202.947 C 153.187 203.105,153.502 203.613,153.739 204.076 C 153.975 204.539,154.266 205.025,154.384 205.156 C 154.502 205.287,154.890 205.972,155.245 206.678 C 155.600 207.384,155.946 208.010,156.015 208.069 C 156.083 208.128,156.422 208.706,156.768 209.352 C 157.114 209.999,157.517 210.660,157.665 210.820 C 157.813 210.981,157.934 211.250,157.934 211.419 C 157.934 211.588,158.012 211.727,158.106 211.727 C 158.201 211.727,158.401 212.066,158.551 212.480 C 158.700 212.894,158.913 213.233,159.024 213.233 C 159.135 213.233,159.225 213.374,159.225 213.547 C 159.225 214.834,168.926 215.520,169.232 214.255 C 169.296 213.989,169.322 204.137,169.290 192.361 L 169.231 170.952 164.981 170.894 L 160.732 170.835 160.732 186.117 C 160.732 200.175,160.645 202.583,160.204 200.824 C 160.124 200.508,159.872 200.011,159.642 199.719 C 159.413 199.427,159.225 199.057,159.225 198.895 C 159.225 198.734,159.148 198.601,159.053 198.601 C 158.959 198.601,158.759 198.263,158.609 197.848 C 158.459 197.434,158.254 197.095,158.153 197.095 C 158.051 197.095,157.905 196.805,157.827 196.450 C 157.749 196.095,157.596 195.804,157.487 195.804 C 157.378 195.804,157.289 195.656,157.289 195.475 C 157.289 195.293,157.152 195.093,156.986 195.029 C 156.819 194.965,156.619 194.661,156.542 194.353 C 156.465 194.046,156.214 193.555,155.985 193.264 C 155.755 192.972,155.568 192.602,155.568 192.440 C 155.568 192.278,155.490 192.146,155.396 192.146 C 155.301 192.146,155.101 191.807,154.951 191.393 C 154.802 190.979,154.599 190.640,154.501 190.640 C 154.403 190.640,154.259 190.386,154.182 190.076 C 154.104 189.766,153.924 189.382,153.782 189.223 C 153.215 188.588,153.065 188.351,152.775 187.628 C 152.608 187.214,152.404 186.826,152.322 186.767 C 152.239 186.708,151.758 185.885,151.254 184.938 C 150.749 183.991,150.255 183.185,150.155 183.145 C 150.055 183.106,149.973 182.949,149.973 182.798 C 149.973 182.646,149.793 182.291,149.572 182.009 C 149.352 181.726,149.097 181.258,149.006 180.968 C 148.915 180.677,148.732 180.317,148.600 180.168 C 148.004 179.496,147.864 179.278,147.712 178.789 C 147.623 178.503,147.369 178.011,147.148 177.697 C 146.927 177.383,146.746 177.020,146.746 176.890 C 146.746 176.760,146.656 176.654,146.547 176.654 C 146.439 176.654,146.286 176.364,146.208 176.009 C 146.130 175.654,145.984 175.363,145.883 175.363 C 145.783 175.363,145.449 174.831,145.141 174.180 C 144.833 173.529,144.498 172.996,144.396 172.996 C 144.294 172.996,144.145 172.730,144.065 172.405 C 143.671 170.804,143.813 170.845,138.600 170.845 C 136.019 170.845,133.843 170.909,133.764 170.988 M190.640 171.062 C 188.152 171.548,187.197 171.789,187.197 171.932 C 187.197 172.018,186.845 172.154,186.415 172.234 C 185.985 172.315,185.284 172.568,184.858 172.796 C 184.432 173.025,183.969 173.211,183.830 173.211 C 183.690 173.211,183.543 173.284,183.504 173.373 C 183.401 173.605,181.654 174.718,181.392 174.718 C 181.272 174.718,181.172 174.790,181.171 174.879 C 181.170 174.968,180.826 175.274,180.406 175.561 C 179.365 176.269,177.286 178.380,176.525 179.500 C 176.182 180.006,175.801 180.527,175.678 180.658 C 175.556 180.788,175.217 181.369,174.925 181.949 C 174.634 182.528,174.330 183.051,174.251 183.111 C 174.171 183.172,174.035 183.511,173.948 183.864 C 173.862 184.218,173.726 184.556,173.647 184.615 C 173.217 184.936,172.374 188.134,172.360 189.498 C 172.355 189.994,172.249 190.462,172.125 190.539 C 171.852 190.708,171.886 194.897,172.162 195.068 C 172.266 195.132,172.355 195.590,172.360 196.086 C 172.375 197.523,172.884 199.429,173.759 201.324 C 173.931 201.696,174.072 202.108,174.072 202.238 C 174.072 202.368,174.161 202.474,174.270 202.474 C 174.379 202.474,174.533 202.771,174.613 203.134 C 174.693 203.498,174.894 203.847,175.061 203.911 C 175.227 203.974,175.363 204.104,175.363 204.200 C 175.363 204.480,176.499 206.132,176.692 206.132 C 176.790 206.132,176.869 206.246,176.869 206.385 C 176.869 206.849,180.988 210.651,181.491 210.651 C 181.645 210.651,181.828 210.796,181.896 210.974 C 181.964 211.151,182.160 211.296,182.331 211.296 C 182.503 211.296,182.675 211.369,182.715 211.458 C 182.754 211.547,183.367 211.894,184.077 212.230 C 184.788 212.566,185.539 212.931,185.748 213.040 C 187.652 214.042,195.299 215.167,195.708 214.506 C 195.775 214.398,196.217 214.309,196.690 214.309 C 197.856 214.309,200.538 213.854,200.538 213.656 C 200.538 213.568,200.866 213.434,201.268 213.359 C 202.253 213.174,205.752 211.404,206.515 210.705 C 206.677 210.557,206.884 210.436,206.977 210.436 C 207.070 210.436,207.388 210.218,207.685 209.952 C 207.982 209.685,208.771 208.984,209.438 208.392 C 210.105 207.801,210.651 207.200,210.651 207.058 C 210.651 206.916,210.775 206.722,210.926 206.627 C 211.340 206.368,212.523 204.791,212.840 204.074 C 212.994 203.727,213.242 203.315,213.392 203.158 C 213.541 203.002,213.663 202.736,213.663 202.567 C 213.663 202.398,213.748 202.259,213.850 202.259 C 213.953 202.259,214.164 201.799,214.319 201.237 C 214.473 200.675,214.667 200.167,214.750 200.108 C 214.892 200.006,215.132 199.116,215.619 196.880 C 216.033 194.985,215.860 188.145,215.382 187.520 C 215.292 187.402,215.150 186.893,215.067 186.391 C 214.984 185.888,214.846 185.476,214.761 185.476 C 214.675 185.476,214.481 184.992,214.330 184.400 C 214.178 183.808,213.974 183.324,213.876 183.324 C 213.778 183.324,213.634 183.034,213.556 182.679 C 213.478 182.324,213.343 182.033,213.256 182.033 C 213.169 182.033,212.935 181.719,212.736 181.334 C 211.631 179.194,208.282 175.716,206.159 174.502 C 205.849 174.325,205.562 174.107,205.523 174.018 C 205.483 173.930,205.327 173.857,205.175 173.857 C 205.023 173.857,204.668 173.679,204.386 173.463 C 204.104 173.246,203.292 172.847,202.582 172.577 C 201.872 172.306,201.142 172.012,200.960 171.922 C 200.778 171.832,200.197 171.687,199.669 171.600 C 199.141 171.513,198.588 171.344,198.440 171.224 C 198.092 170.943,191.905 170.815,190.640 171.062 M218.612 192.661 C 218.612 212.357,218.645 214.491,218.953 214.609 C 219.650 214.876,240.028 214.754,240.301 214.481 C 240.483 214.299,240.559 213.085,240.559 210.393 L 240.559 206.563 233.997 206.563 L 227.434 206.563 227.434 188.834 C 227.434 172.867,227.400 171.093,227.094 170.975 C 226.907 170.903,224.922 170.845,222.683 170.845 L 218.612 170.845 218.612 192.661 M258.042 170.988 C 257.539 171.041,257.127 171.165,257.127 171.262 C 257.127 171.360,256.595 171.507,255.944 171.588 C 255.293 171.670,254.761 171.815,254.761 171.912 C 254.761 172.009,254.409 172.154,253.978 172.234 C 253.548 172.315,252.848 172.568,252.422 172.796 C 251.996 173.025,251.525 173.211,251.375 173.211 C 251.225 173.211,251.103 173.306,251.103 173.422 C 251.103 173.539,250.861 173.694,250.565 173.769 C 250.269 173.843,250.027 173.978,250.027 174.069 C 250.027 174.160,249.743 174.352,249.397 174.496 C 249.050 174.640,248.714 174.893,248.651 175.060 C 248.587 175.227,248.421 175.363,248.283 175.363 C 247.772 175.363,243.366 180.129,243.360 180.689 C 243.358 180.836,243.260 180.958,243.141 180.958 C 243.023 180.958,242.926 181.106,242.926 181.287 C 242.926 181.468,242.781 181.672,242.604 181.740 C 242.426 181.808,242.278 181.975,242.274 182.110 C 242.270 182.245,242.029 182.840,241.738 183.432 C 241.447 184.024,241.208 184.677,241.207 184.884 C 241.206 185.091,241.119 185.261,241.014 185.261 C 240.909 185.261,240.755 185.624,240.672 186.068 C 240.589 186.512,240.436 186.978,240.332 187.104 C 239.574 188.021,239.586 197.558,240.346 198.494 C 240.442 198.612,240.589 199.072,240.672 199.516 C 240.755 199.960,240.909 200.323,241.014 200.323 C 241.119 200.323,241.205 200.483,241.205 200.678 C 241.205 201.175,242.743 204.277,243.163 204.626 C 243.234 204.685,243.417 204.970,243.569 205.258 C 244.124 206.311,247.694 209.958,248.637 210.436 C 248.987 210.613,249.391 210.855,249.535 210.974 C 250.197 211.518,250.430 211.657,251.641 212.231 C 252.351 212.568,253.174 212.964,253.470 213.111 C 255.996 214.370,261.122 214.905,265.196 214.336 C 266.962 214.089,269.874 213.259,270.002 212.967 C 270.041 212.876,270.185 212.803,270.321 212.803 C 270.646 212.803,272.921 211.666,273.014 211.458 C 273.054 211.369,273.170 211.296,273.274 211.296 C 273.855 211.296,278.860 207.009,278.860 206.511 C 278.860 206.421,279.029 206.165,279.236 205.943 C 279.906 205.223,280.366 204.545,280.366 204.278 C 280.366 204.134,280.438 203.984,280.527 203.945 C 280.782 203.831,281.872 201.701,281.872 201.316 C 281.872 201.125,281.961 200.968,282.070 200.968 C 282.179 200.968,282.335 200.654,282.418 200.269 C 282.500 199.884,282.641 199.473,282.731 199.354 C 282.946 199.072,283.378 196.519,283.378 195.530 C 283.378 195.103,283.475 194.694,283.593 194.621 C 283.855 194.459,283.884 191.142,283.625 190.982 C 283.524 190.920,283.385 190.164,283.316 189.302 C 283.197 187.821,282.415 184.849,282.083 184.615 C 281.999 184.556,281.858 184.266,281.771 183.970 C 281.516 183.107,280.736 181.603,280.543 181.603 C 280.445 181.603,280.366 181.477,280.366 181.324 C 280.366 181.041,279.919 180.375,279.236 179.641 C 279.029 179.418,278.860 179.150,278.860 179.044 C 278.860 178.834,276.446 176.372,275.568 175.686 C 274.483 174.839,272.959 173.865,271.867 173.319 C 271.393 173.082,270.958 172.830,270.898 172.758 C 270.839 172.686,270.282 172.498,269.661 172.341 C 269.040 172.183,268.531 171.982,268.531 171.893 C 268.531 171.804,268.072 171.665,267.509 171.584 C 266.947 171.502,266.364 171.338,266.214 171.218 C 265.931 170.992,259.670 170.816,258.042 170.988 M335.664 192.787 L 335.664 214.739 339.699 214.736 C 341.918 214.734,343.855 214.655,344.003 214.561 C 344.217 214.425,344.262 209.904,344.218 192.671 L 344.164 170.952 339.914 170.894 L 335.664 170.835 335.664 192.787 M346.998 170.986 C 346.818 171.167,346.804 213.929,346.984 214.399 C 347.169 214.880,370.317 214.922,370.716 214.442 C 370.886 214.237,370.944 212.981,370.904 210.407 L 370.845 206.670 363.260 206.614 L 355.675 206.557 355.675 201.826 L 355.675 197.095 362.733 197.095 C 367.935 197.095,369.858 197.027,370.048 196.837 C 370.475 196.410,370.404 189.478,369.968 189.042 C 369.675 188.748,368.709 188.704,362.653 188.704 L 355.675 188.704 355.675 183.865 L 355.675 179.026 363.260 178.970 L 370.845 178.913 370.845 174.933 L 370.845 170.952 358.994 170.897 C 352.476 170.866,347.078 170.906,346.998 170.986 M197.584 179.191 C 197.729 179.310,198.284 179.534,198.817 179.690 C 199.349 179.846,199.913 180.098,200.069 180.250 C 200.226 180.403,200.492 180.527,200.661 180.527 C 200.830 180.527,200.968 180.617,200.968 180.728 C 200.968 180.838,201.150 180.986,201.373 181.057 C 202.103 181.289,203.960 183.009,204.575 184.024 C 204.773 184.349,204.998 184.615,205.077 184.615 C 205.155 184.615,205.347 184.930,205.502 185.315 C 205.658 185.699,205.839 186.062,205.905 186.122 C 207.619 187.660,208.113 197.072,206.539 198.173 C 206.452 198.234,206.315 198.548,206.234 198.873 C 206.152 199.197,206.023 199.462,205.946 199.462 C 205.870 199.462,205.670 199.772,205.502 200.152 C 204.956 201.384,202.037 204.411,201.394 204.411 C 201.271 204.411,201.114 204.556,201.046 204.734 C 200.978 204.911,200.808 205.056,200.668 205.056 C 200.528 205.056,200.045 205.245,199.594 205.474 C 199.143 205.704,198.469 205.958,198.096 206.039 C 197.723 206.120,197.349 206.295,197.264 206.428 C 197.052 206.763,191.113 206.763,190.901 206.428 C 190.817 206.294,190.336 206.116,189.833 206.032 C 189.330 205.948,188.919 205.807,188.919 205.718 C 188.919 205.629,188.531 205.428,188.058 205.272 C 187.585 205.115,187.197 204.906,187.197 204.807 C 187.197 204.707,187.090 204.626,186.958 204.626 C 186.694 204.626,184.719 203.044,184.139 202.367 C 183.163 201.228,182.679 200.564,182.679 200.363 C 182.679 200.242,182.602 200.111,182.509 200.072 C 182.293 199.981,181.173 197.606,181.173 197.240 C 181.173 197.089,181.052 196.845,180.904 196.697 C 180.709 196.502,180.635 195.383,180.635 192.637 C 180.635 189.796,180.702 188.825,180.904 188.757 C 181.052 188.708,181.173 188.506,181.173 188.309 C 181.173 187.017,185.139 181.388,186.049 181.388 C 186.126 181.388,186.506 181.146,186.894 180.850 C 187.282 180.554,187.702 180.312,187.829 180.312 C 187.955 180.312,188.058 180.231,188.058 180.132 C 188.058 179.969,189.750 179.390,191.393 178.990 C 192.301 178.770,197.264 178.931,197.584 179.191 M265.842 179.346 C 267.849 180.221,268.531 180.566,268.531 180.705 C 268.531 180.786,268.819 180.980,269.171 181.135 C 270.254 181.615,273.050 184.582,273.050 185.253 C 273.050 185.356,273.123 185.472,273.211 185.512 C 273.487 185.634,274.279 187.267,274.446 188.058 C 274.534 188.472,274.716 188.947,274.850 189.113 C 275.347 189.727,275.164 195.729,274.603 197.203 C 274.103 198.517,273.460 199.913,273.265 200.108 C 273.205 200.167,272.866 200.645,272.511 201.171 C 271.715 202.350,270.383 203.695,269.839 203.868 C 269.615 203.939,269.378 204.139,269.311 204.312 C 269.245 204.485,269.042 204.626,268.861 204.626 C 268.680 204.626,268.531 204.707,268.531 204.807 C 268.531 204.906,268.144 205.115,267.671 205.272 C 267.197 205.428,266.810 205.633,266.810 205.727 C 266.810 205.821,266.447 205.963,266.003 206.043 C 265.559 206.123,265.060 206.297,264.894 206.429 C 264.455 206.780,258.740 206.755,258.386 206.401 C 258.238 206.253,257.979 206.132,257.811 206.132 C 257.441 206.132,254.967 205.051,254.626 204.740 C 254.492 204.618,254.153 204.373,253.873 204.196 C 253.418 203.908,251.324 201.827,250.618 200.962 C 250.470 200.781,250.115 200.151,249.829 199.563 C 249.543 198.975,249.225 198.438,249.124 198.370 C 249.022 198.302,248.828 197.648,248.692 196.917 C 248.556 196.187,248.365 195.589,248.268 195.589 C 248.025 195.589,248.042 190.510,248.287 190.045 C 248.395 189.840,248.596 189.115,248.733 188.435 C 248.870 187.754,249.072 187.197,249.182 187.197 C 249.292 187.197,249.381 187.017,249.381 186.796 C 249.381 186.575,249.575 186.149,249.812 185.848 C 250.048 185.547,250.242 185.205,250.242 185.089 C 250.242 184.972,250.387 184.821,250.565 184.753 C 250.742 184.685,250.888 184.492,250.888 184.325 C 250.888 183.879,253.301 181.510,254.087 181.184 C 254.457 181.031,254.761 180.822,254.761 180.720 C 254.761 180.619,255.003 180.475,255.299 180.400 C 255.594 180.326,255.836 180.191,255.836 180.100 C 255.836 179.959,257.811 179.268,259.172 178.933 C 260.206 178.678,264.989 178.974,265.842 179.346 "
              stroke="none" fill="#04bcc4" fill-rule="evenodd"></path>
        <path id="path1"
              d="M0.215 31.737 C 0.215 61.821,0.235 63.475,0.592 63.472 C 1.004 63.469,63.905 0.658,63.905 0.250 C 63.905 0.061,56.076 0.000,32.060 0.000 L 0.215 0.000 0.215 31.737 M102.133 0.338 C 102.348 0.896,165.017 63.475,165.362 63.475 C 165.642 63.475,165.680 59.629,165.680 31.737 L 165.680 0.000 133.842 0.000 C 104.995 0.000,102.016 0.032,102.133 0.338 M194.513 30.231 C 194.513 59.675,194.524 60.463,194.918 60.463 C 195.167 60.463,202.029 53.757,212.777 43.012 L 230.231 25.562 230.231 12.781 L 230.231 0.000 212.372 0.000 L 194.513 0.000 194.513 30.231 M310.059 0.355 C 309.290 0.400,308.467 0.523,308.230 0.629 C 307.994 0.735,306.661 0.939,305.268 1.082 C 303.876 1.226,302.689 1.421,302.630 1.515 C 302.572 1.610,301.895 1.755,301.127 1.837 C 300.359 1.919,299.731 2.055,299.731 2.138 C 299.731 2.222,298.989 2.405,298.082 2.546 C 297.176 2.687,296.328 2.887,296.200 2.991 C 296.071 3.094,295.555 3.247,295.052 3.330 C 294.550 3.412,294.091 3.558,294.033 3.652 C 293.974 3.747,293.562 3.892,293.117 3.975 C 292.672 4.059,292.211 4.202,292.093 4.295 C 291.974 4.387,291.369 4.591,290.748 4.747 C 290.126 4.903,289.618 5.098,289.618 5.181 C 289.618 5.264,289.279 5.395,288.865 5.473 C 288.451 5.550,288.112 5.694,288.112 5.792 C 288.112 5.891,287.821 6.029,287.466 6.100 C 287.111 6.171,286.390 6.425,285.864 6.665 C 285.338 6.905,284.806 7.101,284.681 7.101 C 284.556 7.101,284.454 7.190,284.454 7.299 C 284.454 7.408,284.164 7.561,283.808 7.639 C 283.453 7.716,283.163 7.854,283.163 7.944 C 283.163 8.035,282.776 8.224,282.302 8.366 C 281.829 8.508,281.442 8.709,281.442 8.813 C 281.442 8.918,281.151 9.067,280.796 9.145 C 280.441 9.223,280.151 9.365,280.151 9.461 C 280.151 9.557,279.890 9.701,279.572 9.781 C 279.254 9.861,278.731 10.114,278.409 10.342 C 278.088 10.571,277.719 10.758,277.589 10.758 C 277.460 10.758,277.353 10.855,277.353 10.974 C 277.353 11.092,277.223 11.189,277.064 11.189 C 276.904 11.189,276.550 11.382,276.278 11.619 C 276.005 11.856,275.666 12.049,275.524 12.049 C 275.383 12.049,275.044 12.243,274.771 12.480 C 274.498 12.717,274.145 12.910,273.985 12.910 C 273.826 12.910,273.696 13.010,273.696 13.132 C 273.696 13.254,273.526 13.416,273.319 13.491 C 273.112 13.567,272.736 13.782,272.483 13.969 C 272.231 14.156,271.804 14.454,271.535 14.632 C 271.266 14.809,270.895 15.124,270.709 15.331 C 270.524 15.538,270.263 15.707,270.130 15.707 C 269.997 15.707,269.687 15.877,269.441 16.084 C 269.196 16.291,268.680 16.703,268.296 16.998 C 267.912 17.294,267.373 17.749,267.099 18.009 C 266.824 18.268,266.460 18.559,266.291 18.654 C 265.439 19.132,256.912 27.313,256.912 27.651 C 256.912 27.728,256.525 28.174,256.052 28.643 C 255.578 29.111,255.191 29.580,255.191 29.683 C 255.191 29.787,254.876 30.208,254.492 30.619 C 253.396 31.791,252.695 32.678,252.370 33.307 C 252.206 33.625,251.876 34.080,251.638 34.318 C 251.399 34.555,251.061 35.040,250.885 35.395 C 250.709 35.750,250.444 36.118,250.296 36.213 C 250.148 36.308,250.027 36.525,250.027 36.697 C 250.027 36.869,249.946 37.009,249.846 37.009 C 249.747 37.009,249.552 37.227,249.414 37.493 C 249.275 37.760,248.970 38.268,248.736 38.623 C 248.502 38.978,248.190 39.510,248.043 39.806 C 247.896 40.102,247.718 40.393,247.647 40.452 C 247.576 40.511,247.381 40.874,247.214 41.259 C 247.046 41.643,246.836 41.958,246.747 41.958 C 246.657 41.958,246.584 42.096,246.584 42.265 C 246.584 42.434,246.463 42.702,246.315 42.859 C 246.167 43.016,245.756 43.725,245.401 44.434 C 245.046 45.143,244.683 45.756,244.594 45.795 C 244.505 45.835,244.432 45.961,244.432 46.076 C 244.432 46.191,244.246 46.695,244.018 47.195 C 243.790 47.696,243.537 48.368,243.457 48.690 C 243.376 49.011,243.228 49.274,243.128 49.274 C 243.028 49.274,242.882 49.613,242.805 50.027 C 242.727 50.441,242.585 50.780,242.489 50.780 C 242.393 50.780,242.246 51.093,242.162 51.476 C 242.078 51.859,241.884 52.367,241.731 52.606 C 241.577 52.844,241.386 53.402,241.305 53.846 C 241.223 54.290,241.082 54.653,240.990 54.653 C 240.899 54.653,240.758 55.089,240.678 55.621 C 240.598 56.154,240.453 56.590,240.354 56.590 C 240.256 56.590,240.051 57.219,239.898 57.988 C 239.745 58.757,239.548 59.387,239.460 59.387 C 239.371 59.387,239.233 59.919,239.152 60.570 C 239.070 61.221,238.918 61.754,238.813 61.754 C 238.709 61.754,238.623 61.977,238.623 62.251 C 238.623 62.525,238.436 63.469,238.207 64.349 C 237.979 65.229,237.724 66.651,237.642 67.509 C 237.559 68.367,237.416 69.069,237.325 69.069 C 237.233 69.069,237.096 70.110,237.020 71.382 C 236.945 72.655,236.793 73.859,236.683 74.059 C 236.367 74.635,236.204 83.923,236.454 87.144 C 236.831 92.008,237.169 94.890,237.363 94.890 C 237.464 94.890,237.551 95.253,237.556 95.697 C 237.560 96.140,237.700 97.181,237.865 98.010 C 238.031 98.838,238.281 100.097,238.421 100.807 C 238.560 101.517,238.751 102.195,238.844 102.313 C 238.937 102.431,239.081 102.988,239.165 103.550 C 239.249 104.112,239.392 104.572,239.484 104.572 C 239.575 104.572,239.714 105.001,239.793 105.525 C 239.941 106.513,240.568 108.484,241.109 109.661 C 241.280 110.034,241.423 110.470,241.427 110.630 C 241.431 110.789,241.622 111.307,241.850 111.781 C 242.079 112.254,242.269 112.811,242.273 113.018 C 242.278 113.225,242.370 113.394,242.479 113.394 C 242.588 113.394,242.741 113.685,242.819 114.040 C 242.897 114.395,243.031 114.685,243.118 114.685 C 243.204 114.685,243.399 115.169,243.551 115.761 C 243.703 116.353,243.907 116.837,244.005 116.837 C 244.103 116.837,244.247 117.127,244.325 117.483 C 244.403 117.838,244.540 118.128,244.630 118.128 C 244.720 118.128,244.922 118.515,245.078 118.989 C 245.234 119.462,245.436 119.849,245.526 119.849 C 245.616 119.849,245.753 120.140,245.831 120.495 C 245.909 120.850,246.062 121.140,246.171 121.140 C 246.280 121.140,246.369 121.281,246.369 121.452 C 246.369 121.624,246.501 121.842,246.661 121.937 C 246.822 122.031,247.069 122.464,247.210 122.898 C 247.351 123.333,247.607 123.804,247.779 123.947 C 247.950 124.089,248.090 124.339,248.090 124.502 C 248.090 124.665,248.187 124.798,248.306 124.798 C 248.424 124.798,248.521 124.897,248.521 125.018 C 248.521 125.256,249.535 126.880,249.973 127.342 C 250.121 127.498,250.242 127.754,250.242 127.911 C 250.242 128.067,250.387 128.251,250.565 128.319 C 250.742 128.387,250.888 128.586,250.888 128.761 C 250.888 128.937,251.009 129.158,251.157 129.252 C 251.465 129.450,252.394 130.730,252.394 130.958 C 252.394 131.041,252.538 131.263,252.714 131.450 C 253.848 132.655,254.545 133.489,254.545 133.640 C 254.545 133.736,254.884 134.144,255.299 134.546 C 255.713 134.948,256.052 135.354,256.052 135.447 C 256.052 135.540,256.681 136.237,257.450 136.995 C 258.219 137.753,258.849 138.442,258.849 138.527 C 258.849 138.611,259.599 139.389,260.516 140.255 C 261.434 141.120,262.781 142.402,263.510 143.104 C 264.240 143.805,264.906 144.379,264.991 144.379 C 265.076 144.379,265.465 144.718,265.856 145.132 C 266.246 145.546,266.652 145.885,266.758 145.885 C 266.864 145.885,267.178 146.127,267.456 146.423 C 267.734 146.719,268.054 146.961,268.168 146.961 C 268.281 146.961,268.599 147.203,268.873 147.499 C 269.147 147.795,269.431 148.037,269.504 148.037 C 269.683 148.037,271.203 149.179,271.293 149.381 C 271.332 149.470,271.497 149.543,271.659 149.543 C 271.820 149.543,272.030 149.664,272.125 149.812 C 272.220 149.960,272.587 150.226,272.942 150.404 C 273.622 150.743,273.710 150.803,274.535 151.483 C 274.820 151.718,275.183 151.910,275.342 151.910 C 275.502 151.910,275.632 151.995,275.632 152.099 C 275.632 152.203,275.947 152.415,276.331 152.571 C 276.716 152.726,277.079 152.907,277.138 152.973 C 277.263 153.113,278.058 153.556,279.720 154.414 C 280.371 154.750,280.953 155.091,281.013 155.172 C 281.074 155.252,281.388 155.385,281.713 155.466 C 282.037 155.548,282.302 155.685,282.302 155.772 C 282.302 155.858,282.690 156.057,283.163 156.213 C 283.636 156.369,284.024 156.571,284.024 156.661 C 284.024 156.751,284.305 156.886,284.648 156.961 C 284.992 157.037,285.641 157.287,286.092 157.517 C 286.543 157.746,287.085 157.934,287.297 157.934 C 287.508 157.934,287.682 158.024,287.682 158.132 C 287.682 158.241,287.979 158.396,288.342 158.475 C 288.705 158.555,289.261 158.756,289.579 158.922 C 289.896 159.087,290.320 159.223,290.520 159.224 C 290.720 159.225,290.938 159.312,291.003 159.419 C 291.069 159.525,291.632 159.732,292.253 159.877 C 292.875 160.023,293.480 160.214,293.599 160.301 C 293.717 160.389,294.201 160.530,294.675 160.615 C 295.148 160.700,295.632 160.846,295.750 160.938 C 295.869 161.030,296.643 161.232,297.472 161.387 C 298.300 161.542,299.075 161.737,299.193 161.821 C 299.311 161.906,299.941 162.045,300.592 162.130 C 301.243 162.216,301.877 162.368,302.001 162.467 C 302.125 162.567,303.335 162.769,304.690 162.916 C 306.046 163.064,307.203 163.253,307.262 163.336 C 307.849 164.165,327.454 164.155,329.317 163.326 C 329.554 163.220,330.812 163.018,332.114 162.877 C 333.416 162.735,334.578 162.545,334.696 162.453 C 334.814 162.361,335.444 162.216,336.095 162.130 C 336.746 162.045,337.375 161.901,337.493 161.812 C 337.612 161.722,338.386 161.527,339.215 161.377 C 340.043 161.228,340.818 161.032,340.936 160.943 C 341.054 160.854,341.490 160.710,341.904 160.624 C 342.318 160.537,342.754 160.397,342.873 160.312 C 342.991 160.227,343.644 160.037,344.325 159.891 C 345.005 159.745,345.562 159.546,345.562 159.449 C 345.562 159.352,345.897 159.210,346.306 159.134 C 346.715 159.057,347.321 158.853,347.651 158.681 C 347.981 158.508,348.421 158.367,348.628 158.366 C 348.835 158.365,349.005 158.276,349.005 158.167 C 349.005 158.058,349.320 157.901,349.704 157.819 C 350.089 157.737,350.646 157.543,350.941 157.388 C 352.193 156.732,355.236 155.352,355.429 155.352 C 355.545 155.352,355.672 155.280,355.711 155.191 C 355.750 155.102,356.364 154.739,357.074 154.384 C 357.784 154.029,358.397 153.666,358.436 153.577 C 358.476 153.488,358.638 153.416,358.798 153.416 C 358.957 153.416,359.216 153.287,359.373 153.130 C 359.640 152.863,360.177 152.542,361.485 151.869 C 361.781 151.717,362.140 151.494,362.284 151.374 C 362.872 150.885,363.125 150.713,363.661 150.437 C 363.970 150.277,364.454 149.938,364.737 149.683 C 365.019 149.429,365.503 149.090,365.813 148.930 C 366.122 148.771,366.626 148.408,366.933 148.123 C 367.240 147.839,367.588 147.606,367.708 147.606 C 367.827 147.606,368.028 147.413,368.155 147.176 C 368.282 146.939,368.503 146.743,368.647 146.741 C 368.790 146.738,369.295 146.404,369.769 145.999 C 370.242 145.593,371.005 144.942,371.465 144.551 C 372.737 143.469,379.982 136.331,379.986 136.156 C 379.988 136.071,380.304 135.675,380.689 135.277 C 381.688 134.241,382.557 133.189,382.823 132.691 C 382.950 132.454,383.284 132.047,383.565 131.786 C 383.847 131.525,384.077 131.244,384.077 131.161 C 384.077 130.968,385.208 129.448,385.422 129.353 C 385.511 129.313,385.584 129.149,385.584 128.987 C 385.584 128.825,385.705 128.615,385.853 128.521 C 386.001 128.426,386.267 128.058,386.444 127.703 C 386.621 127.348,386.888 126.980,387.036 126.885 C 387.184 126.791,387.305 126.573,387.305 126.401 C 387.305 126.230,387.394 126.089,387.503 126.089 C 387.613 126.089,387.814 125.750,387.951 125.336 C 388.087 124.922,388.287 124.583,388.393 124.583 C 388.500 124.583,388.649 124.341,388.723 124.045 C 388.797 123.749,388.928 123.507,389.014 123.507 C 389.101 123.507,389.449 122.951,389.789 122.270 C 390.129 121.590,390.462 120.984,390.529 120.925 C 390.745 120.735,392.469 117.136,392.469 116.874 C 392.469 116.735,392.566 116.622,392.684 116.622 C 392.803 116.622,392.899 116.499,392.899 116.350 C 392.899 116.200,393.080 115.740,393.301 115.328 C 393.522 114.915,393.772 114.263,393.856 113.878 C 393.940 113.494,394.088 113.179,394.184 113.179 C 394.279 113.179,394.421 112.840,394.499 112.426 C 394.577 112.012,394.714 111.673,394.805 111.673 C 394.896 111.673,395.097 111.165,395.253 110.543 C 395.409 109.922,395.613 109.317,395.705 109.198 C 395.798 109.080,395.941 108.620,396.024 108.176 C 396.107 107.733,396.258 107.370,396.359 107.370 C 396.460 107.370,396.607 106.885,396.685 106.294 C 396.764 105.702,396.905 105.218,397.000 105.218 C 397.094 105.218,397.289 104.492,397.432 103.604 C 397.575 102.717,397.766 101.990,397.857 101.990 C 397.947 101.990,398.089 101.409,398.171 100.699 C 398.254 99.989,398.397 99.360,398.490 99.303 C 398.584 99.245,398.777 98.204,398.920 96.990 C 399.062 95.776,399.262 94.588,399.363 94.352 C 400.177 92.449,400.181 70.300,399.368 69.715 C 399.286 69.656,399.097 68.544,398.949 67.244 C 398.801 65.944,398.604 64.831,398.511 64.770 C 398.418 64.709,398.273 64.128,398.189 63.480 C 398.105 62.832,397.959 62.203,397.865 62.082 C 397.772 61.960,397.575 61.232,397.429 60.463 C 397.282 59.693,397.086 58.967,396.992 58.849 C 396.898 58.731,396.753 58.222,396.670 57.719 C 396.587 57.216,396.444 56.805,396.351 56.805 C 396.258 56.805,396.120 56.417,396.044 55.944 C 395.969 55.471,395.823 55.083,395.722 55.083 C 395.620 55.083,395.473 54.684,395.395 54.196 C 395.316 53.708,395.055 52.861,394.814 52.313 C 394.089 50.670,393.843 50.088,393.305 48.736 C 393.023 48.026,392.719 47.413,392.630 47.373 C 392.542 47.334,392.469 47.171,392.469 47.012 C 392.469 46.853,392.338 46.592,392.179 46.432 C 392.019 46.273,391.763 45.757,391.610 45.287 C 391.456 44.817,391.272 44.384,391.201 44.325 C 391.086 44.230,390.551 43.270,389.469 41.215 C 389.285 40.865,389.013 40.447,388.865 40.285 C 388.717 40.123,388.596 39.897,388.596 39.782 C 388.596 39.667,388.498 39.456,388.378 39.313 C 387.927 38.776,387.090 37.413,387.090 37.215 C 387.090 37.102,386.990 37.009,386.868 37.009 C 386.746 37.009,386.583 36.840,386.506 36.633 C 386.329 36.157,385.529 34.988,385.315 34.893 C 385.226 34.854,385.153 34.685,385.153 34.519 C 385.153 34.352,384.960 34.095,384.723 33.947 C 384.486 33.799,384.293 33.571,384.293 33.440 C 384.293 33.309,384.123 32.998,383.916 32.750 C 383.709 32.501,383.346 32.041,383.109 31.729 C 382.873 31.416,382.364 30.816,381.980 30.394 C 381.595 29.972,381.280 29.556,381.280 29.469 C 381.280 29.381,380.796 28.823,380.204 28.228 C 379.613 27.633,379.129 27.081,379.129 27.000 C 379.129 26.659,371.273 19.150,370.916 19.150 C 370.802 19.150,370.465 18.860,370.166 18.505 C 369.867 18.150,369.545 17.859,369.449 17.859 C 369.291 17.859,368.432 17.186,367.525 16.353 C 367.332 16.175,366.910 15.893,366.588 15.725 C 366.267 15.557,366.003 15.339,366.003 15.241 C 366.003 15.142,365.855 15.062,365.674 15.062 C 365.492 15.062,365.288 14.917,365.220 14.739 C 365.152 14.562,364.977 14.416,364.830 14.416 C 364.684 14.416,364.388 14.223,364.174 13.986 C 363.960 13.749,363.669 13.556,363.528 13.556 C 363.387 13.556,363.049 13.362,362.776 13.125 C 362.503 12.889,362.159 12.695,362.013 12.695 C 361.866 12.695,361.694 12.559,361.630 12.393 C 361.566 12.226,361.225 12.027,360.872 11.949 C 360.519 11.871,360.176 11.669,360.111 11.498 C 360.045 11.328,359.844 11.189,359.662 11.189 C 359.481 11.189,359.333 11.100,359.333 10.991 C 359.333 10.882,359.051 10.731,358.705 10.655 C 358.360 10.579,358.029 10.390,357.970 10.235 C 357.910 10.080,357.588 9.885,357.255 9.801 C 356.921 9.717,356.598 9.583,356.538 9.502 C 356.369 9.276,354.089 8.176,353.789 8.176 C 353.643 8.176,353.523 8.087,353.523 7.978 C 353.523 7.869,353.233 7.716,352.878 7.639 C 352.523 7.561,352.232 7.412,352.232 7.308 C 352.232 7.205,351.893 7.057,351.479 6.979 C 351.065 6.901,350.726 6.760,350.726 6.666 C 350.726 6.572,350.242 6.371,349.650 6.219 C 349.059 6.067,348.575 5.876,348.575 5.793 C 348.575 5.710,348.236 5.579,347.821 5.501 C 347.407 5.423,347.068 5.281,347.068 5.184 C 347.068 5.087,346.487 4.884,345.777 4.734 C 345.067 4.583,344.486 4.387,344.486 4.298 C 344.486 4.210,344.051 4.072,343.518 3.992 C 342.985 3.912,342.550 3.759,342.550 3.652 C 342.550 3.545,342.063 3.393,341.469 3.314 C 340.875 3.235,340.340 3.093,340.281 2.997 C 340.222 2.902,339.450 2.702,338.565 2.553 C 337.680 2.405,336.955 2.216,336.955 2.135 C 336.955 2.053,336.302 1.917,335.503 1.833 C 334.704 1.748,333.954 1.606,333.835 1.517 C 333.581 1.325,330.295 0.860,329.198 0.860 C 328.778 0.861,328.317 0.743,328.172 0.598 C 327.915 0.341,313.586 0.148,310.059 0.355 M228.958 34.717 C 228.804 35.005,228.446 35.364,228.164 35.516 C 227.881 35.667,227.649 35.861,227.649 35.948 C 227.649 36.034,227.255 36.478,226.773 36.933 C 226.291 37.389,225.734 37.946,225.536 38.170 C 225.337 38.394,224.992 38.732,224.768 38.923 C 224.544 39.113,224.205 39.451,224.014 39.673 C 223.824 39.896,223.345 40.380,222.948 40.749 C 222.552 41.118,222.068 41.603,221.873 41.827 C 221.677 42.051,221.334 42.390,221.110 42.580 C 220.886 42.771,220.547 43.108,220.357 43.331 C 220.166 43.553,219.684 44.037,219.285 44.406 C 216.205 47.255,195.694 67.627,194.940 68.585 C 194.517 69.122,194.513 69.577,194.513 116.758 L 194.513 164.389 212.373 164.389 L 230.232 164.389 230.178 99.354 L 230.124 34.320 229.681 34.256 C 229.392 34.215,229.141 34.375,228.958 34.717 M321.120 35.900 C 321.182 36.001,322.319 36.149,323.646 36.229 C 324.974 36.310,326.164 36.458,326.290 36.558 C 326.416 36.659,327.101 36.811,327.811 36.896 C 328.521 36.981,329.198 37.124,329.317 37.213 C 329.435 37.302,330.161 37.500,330.931 37.653 C 331.700 37.806,332.421 38.014,332.534 38.115 C 332.646 38.217,332.869 38.300,333.030 38.300 C 333.190 38.300,333.727 38.483,334.224 38.706 C 334.720 38.929,335.441 39.179,335.826 39.261 C 336.210 39.343,336.525 39.499,336.525 39.608 C 336.525 39.717,336.646 39.806,336.794 39.806 C 337.135 39.806,340.626 41.545,341.005 41.904 C 341.162 42.052,341.428 42.173,341.597 42.173 C 341.766 42.173,341.904 42.264,341.904 42.374 C 341.904 42.484,342.110 42.640,342.361 42.720 C 342.937 42.902,344.866 44.222,346.599 45.619 C 347.332 46.209,347.976 46.692,348.030 46.692 C 348.166 46.692,353.324 51.916,353.802 52.537 C 354.014 52.813,354.353 53.271,354.555 53.554 C 354.757 53.838,355.091 54.222,355.299 54.409 C 355.506 54.596,355.675 54.851,355.675 54.976 C 355.675 55.101,355.869 55.369,356.105 55.571 C 356.342 55.774,356.536 56.086,356.536 56.265 C 356.536 56.443,356.626 56.590,356.735 56.590 C 356.915 56.590,357.189 57.028,357.909 58.471 C 358.041 58.736,358.222 58.954,358.311 58.955 C 358.400 58.956,358.472 59.090,358.472 59.253 C 358.472 59.416,358.617 59.669,358.794 59.816 C 358.971 59.963,359.228 60.459,359.366 60.918 C 359.504 61.378,359.698 61.754,359.797 61.754 C 359.897 61.754,359.978 61.860,359.978 61.990 C 359.978 62.120,360.118 62.532,360.288 62.905 C 361.019 64.507,361.700 66.284,361.700 66.588 C 361.700 66.770,361.788 66.918,361.896 66.918 C 362.004 66.918,362.158 67.305,362.238 67.778 C 362.318 68.252,362.454 68.639,362.541 68.639 C 362.627 68.639,362.824 69.415,362.978 70.364 C 363.132 71.313,363.335 72.136,363.429 72.194 C 363.523 72.252,363.668 73.050,363.752 73.966 C 363.835 74.882,364.013 75.768,364.146 75.934 C 364.484 76.354,364.488 87.956,364.151 88.174 C 364.020 88.258,363.842 89.053,363.756 89.941 C 363.670 90.828,363.525 91.651,363.434 91.770 C 363.344 91.888,363.144 92.735,362.992 93.653 C 362.840 94.570,362.642 95.320,362.554 95.320 C 362.466 95.320,362.330 95.655,362.254 96.064 C 362.177 96.473,361.973 97.078,361.801 97.409 C 361.628 97.739,361.487 98.228,361.486 98.494 C 361.485 98.760,361.400 98.978,361.297 98.978 C 361.195 98.978,360.984 99.438,360.829 100.000 C 360.675 100.562,360.481 101.070,360.400 101.130 C 360.190 101.282,359.118 103.594,359.118 103.894 C 359.118 104.030,359.044 104.142,358.954 104.142 C 358.790 104.142,358.585 104.481,357.943 105.810 C 357.758 106.194,357.510 106.509,357.394 106.509 C 357.277 106.509,357.181 106.637,357.181 106.793 C 357.181 106.949,356.794 107.596,356.321 108.230 C 355.847 108.865,355.460 109.469,355.460 109.574 C 355.460 109.679,355.169 110.009,354.814 110.307 C 354.459 110.606,354.169 110.954,354.169 111.080 C 354.169 111.206,353.806 111.668,353.362 112.107 C 352.918 112.546,352.071 113.461,351.479 114.140 C 350.004 115.835,349.862 115.976,349.644 115.976 C 349.539 115.976,349.075 116.339,348.613 116.783 C 347.223 118.119,346.128 118.989,345.837 118.989 C 345.686 118.989,345.562 119.088,345.562 119.209 C 345.562 119.330,345.320 119.522,345.024 119.634 C 344.728 119.747,344.486 119.931,344.486 120.045 C 344.486 120.158,344.268 120.319,344.002 120.402 C 343.736 120.485,343.470 120.613,343.410 120.687 C 343.211 120.936,341.485 122.001,341.281 122.001 C 341.170 122.001,341.047 122.075,341.008 122.165 C 340.915 122.376,337.326 124.153,336.993 124.153 C 336.854 124.153,336.740 124.242,336.740 124.351 C 336.740 124.460,336.425 124.615,336.041 124.695 C 335.656 124.775,335.138 124.969,334.889 125.127 C 334.640 125.284,334.083 125.479,333.652 125.560 C 333.220 125.641,332.867 125.784,332.867 125.879 C 332.867 125.974,332.456 126.119,331.953 126.202 C 331.450 126.285,330.941 126.429,330.823 126.522 C 330.705 126.615,329.833 126.811,328.886 126.959 C 327.940 127.106,327.064 127.305,326.941 127.400 C 326.818 127.495,325.823 127.641,324.729 127.723 C 323.636 127.806,322.690 127.956,322.627 128.057 C 322.464 128.322,314.204 128.292,314.040 128.026 C 313.967 127.907,313.404 127.805,312.790 127.798 C 312.176 127.791,311.237 127.698,310.705 127.592 C 310.172 127.485,308.865 127.237,307.800 127.039 C 306.735 126.842,305.815 126.607,305.756 126.519 C 305.697 126.430,305.237 126.288,304.734 126.204 C 304.231 126.120,303.819 125.972,303.819 125.874 C 303.819 125.777,303.432 125.631,302.960 125.552 C 302.487 125.472,302.054 125.331,301.997 125.239 C 301.940 125.148,301.456 124.950,300.920 124.800 C 300.384 124.650,299.946 124.447,299.946 124.350 C 299.946 124.252,299.607 124.109,299.193 124.031 C 298.779 123.953,298.440 123.819,298.440 123.733 C 298.440 123.647,298.051 123.448,297.576 123.291 C 297.101 123.134,296.605 122.877,296.474 122.719 C 296.343 122.561,296.102 122.431,295.939 122.431 C 295.776 122.431,295.643 122.342,295.643 122.233 C 295.643 122.124,295.360 121.973,295.015 121.897 C 294.670 121.822,294.334 121.620,294.269 121.450 C 294.204 121.280,294.046 121.140,293.920 121.140 C 293.693 121.140,292.587 120.419,292.043 119.917 C 291.891 119.777,291.558 119.596,291.303 119.515 C 291.047 119.434,290.603 119.089,290.316 118.748 C 290.030 118.407,289.715 118.128,289.618 118.128 C 289.026 118.128,282.660 111.655,281.661 110.037 C 281.485 109.754,281.268 109.521,281.177 109.521 C 281.086 109.521,281.011 109.373,281.011 109.192 C 281.011 109.011,280.866 108.806,280.689 108.738 C 280.511 108.670,280.366 108.484,280.366 108.325 C 280.366 108.167,280.239 107.959,280.084 107.864 C 279.929 107.770,279.675 107.378,279.520 106.993 C 279.365 106.608,279.159 106.294,279.063 106.294 C 278.967 106.294,278.821 106.076,278.738 105.810 C 278.654 105.543,278.518 105.277,278.433 105.218 C 278.251 105.090,277.683 104.055,277.341 103.228 C 277.206 102.902,277.013 102.636,276.912 102.636 C 276.810 102.636,276.664 102.297,276.586 101.883 C 276.508 101.469,276.369 101.130,276.277 101.130 C 276.185 101.130,276.043 100.867,275.962 100.545 C 275.882 100.224,275.629 99.552,275.401 99.051 C 275.173 98.550,274.987 97.990,274.987 97.806 C 274.987 97.622,274.907 97.472,274.811 97.472 C 274.714 97.472,274.510 96.841,274.357 96.071 C 274.204 95.301,274.001 94.623,273.907 94.565 C 273.813 94.507,273.669 93.975,273.588 93.384 C 273.507 92.792,273.362 92.260,273.267 92.201 C 273.172 92.142,273.024 91.392,272.939 90.533 C 272.853 89.675,272.674 88.903,272.540 88.819 C 272.199 88.604,272.196 75.573,272.537 75.355 C 272.670 75.271,272.848 74.532,272.935 73.713 C 273.021 72.894,273.176 72.071,273.278 71.884 C 273.380 71.697,273.559 71.108,273.676 70.576 C 274.154 68.404,274.663 66.591,274.814 66.525 C 274.901 66.487,275.035 66.124,275.111 65.719 C 275.187 65.313,275.326 64.981,275.419 64.981 C 275.513 64.981,275.705 64.497,275.847 63.905 C 275.989 63.314,276.191 62.829,276.295 62.829 C 276.399 62.829,276.545 62.587,276.620 62.292 C 276.694 61.996,276.841 61.754,276.946 61.754 C 277.052 61.754,277.140 61.633,277.142 61.485 C 277.144 61.337,277.431 60.683,277.780 60.032 C 278.128 59.381,278.536 58.607,278.686 58.311 C 278.836 58.015,279.070 57.702,279.208 57.614 C 279.345 57.527,279.517 57.215,279.591 56.921 C 279.665 56.627,279.971 56.118,280.272 55.789 C 280.745 55.271,281.705 54.012,282.410 52.984 C 282.528 52.811,283.109 52.160,283.701 51.536 C 284.293 50.912,285.171 49.978,285.653 49.461 C 286.545 48.505,288.342 46.894,289.510 46.006 C 290.636 45.150,290.716 45.086,291.140 44.701 C 291.368 44.494,291.607 44.325,291.671 44.325 C 291.782 44.325,293.052 43.474,293.276 43.249 C 293.335 43.189,293.674 42.996,294.029 42.819 C 294.384 42.642,294.723 42.448,294.782 42.389 C 294.980 42.190,295.739 41.763,297.149 41.058 C 297.918 40.673,298.596 40.294,298.655 40.217 C 298.714 40.139,299.077 40.007,299.462 39.924 C 299.847 39.840,300.161 39.693,300.161 39.596 C 300.161 39.498,300.646 39.303,301.237 39.161 C 301.829 39.019,302.313 38.826,302.313 38.733 C 302.313 38.640,302.664 38.497,303.093 38.417 C 303.521 38.337,304.030 38.181,304.222 38.072 C 304.642 37.834,306.837 37.286,308.768 36.938 C 309.537 36.800,310.269 36.619,310.395 36.538 C 310.520 36.456,311.634 36.322,312.869 36.241 C 314.105 36.159,315.261 36.011,315.438 35.912 C 315.862 35.675,320.974 35.664,321.120 35.900 M0.268 132.921 L 0.323 164.712 32.013 164.767 C 60.566 164.816,63.716 164.788,63.832 164.485 C 63.993 164.066,1.172 101.130,0.592 101.130 C 0.233 101.130,0.216 102.708,0.268 132.921 M133.566 132.569 C 113.207 152.959,102.205 164.124,102.205 164.399 C 102.205 164.817,102.527 164.821,133.889 164.767 L 165.573 164.712 165.627 132.921 C 165.679 102.738,165.663 101.130,165.305 101.146 C 165.097 101.155,150.815 115.295,133.566 132.569 M27.000 192.684 C 27.000 204.400,27.026 209.162,27.058 203.265 C 27.089 197.368,27.089 187.783,27.058 181.963 C 27.026 176.144,27.000 180.968,27.000 192.684 M344.375 192.792 C 344.375 204.567,344.401 209.384,344.432 203.497 C 344.464 197.609,344.464 187.975,344.432 182.087 C 344.401 176.200,344.375 181.017,344.375 192.792 "
              stroke="none" fill="#343434" fill-rule="evenodd"></path>
    </g>
</svg>